<mxfile host="app.diagrams.net" modified="2023-06-20T07:27:06.999Z" agent="Mozilla/5.0 (Windows NT 10.0; Win64; x64) AppleWebKit/537.36 (KHTML, like Gecko) Chrome/106.0.0.0 Safari/537.36" version="21.5.0" etag="50OVOPk3sE20ultIKN2S" type="github">
  <diagram name="第 1 页" id="uENo6f-C8lS2pMzLKruw">
    <mxGraphModel>
      <root>
        <mxCell id="0" />
        <mxCell id="1" parent="0" />
      </root>
    </mxGraphModel>
  </diagram>
</mxfile>
